<svg width="125" height="41" viewBox="0 0 125 41" fill="none" xmlns="http://www.w3.org/2000/svg">
<path d="M5.078 0.0017412H119.922C121.231 -0.0329791 122.501 0.452741 123.453 1.35247C124.405 2.25219 124.961 3.49255 125 4.80174V35.2017C124.961 36.5109 124.405 37.7513 123.453 38.651C122.501 39.5507 121.231 40.0365 119.922 40.0017H5.078C3.76869 40.0365 2.49901 39.5507 1.54717 38.651C0.595334 37.7513 0.0389731 36.5109 0 35.2017V4.80174C0.0389731 3.49255 0.595334 2.25219 1.54717 1.35247C2.49901 0.452741 3.76869 -0.0329791 5.078 0.0017412V0.0017412Z" fill="black"/>
<path d="M28.8634 19.0897C28.875 18.2218 29.1054 17.3709 29.5333 16.6157C29.9613 15.8606 30.5728 15.2256 31.3114 14.7697C30.8398 14.0999 30.2195 13.5484 29.4992 13.1584C28.7789 12.7684 27.978 12.5505 27.1594 12.5217C25.4154 12.3377 23.7194 13.5697 22.8314 13.5697C21.9314 13.5697 20.5514 12.5457 19.0794 12.5697C18.1251 12.6004 17.1952 12.8782 16.3804 13.376C15.5657 13.8738 14.8942 14.5746 14.4314 15.4097C12.4234 18.8897 13.9194 24.0097 15.8474 26.8257C16.8154 28.2017 17.9354 29.7457 19.4154 29.6897C20.8554 29.6337 21.3994 28.7697 23.1354 28.7697C24.8714 28.7697 25.3674 29.6897 26.8714 29.6577C28.4234 29.6337 29.3914 28.2737 30.3274 26.8817C31.0195 25.9002 31.5505 24.8145 31.9004 23.6657C31.0014 23.2842 30.2342 22.6472 29.6938 21.8338C29.1534 21.0204 28.8636 20.0662 28.8604 19.0897" fill="white"/>
<path d="M26.0237 10.674C26.8677 9.66011 27.2837 8.35741 27.1837 7.04199C25.8936 7.17698 24.7021 7.79415 23.8477 8.76999C23.0054 9.73443 22.5771 10.9919 22.6557 12.27C23.3009 12.2768 23.9393 12.137 24.5227 11.8613C25.1061 11.5855 25.6193 11.1809 26.0237 10.678" fill="white"/>
<path d="M49.76 29.4898H47.744L46.644 26.0178H42.8L41.752 29.4898H39.792L43.592 17.6738H45.944L49.76 29.4898ZM46.312 24.5618L45.312 21.4818C45.212 21.1618 45.012 20.4258 44.72 19.2578H44.68C44.56 19.7578 44.38 20.5058 44.12 21.4818L43.136 24.5618H46.312Z" fill="white"/>
<path d="M59.5284 25.1302C59.5983 26.3851 59.1732 27.6173 58.3444 28.5622C58.0122 28.9253 57.6062 29.2131 57.1536 29.4063C56.7011 29.5994 56.2124 29.6935 55.7204 29.6822C55.2435 29.7214 54.7649 29.6296 54.3363 29.4167C53.9077 29.2038 53.5454 28.8779 53.2884 28.4742V32.9462H51.3884V23.7702C51.3884 22.8582 51.3644 21.9302 51.3164 20.9702H52.9804L53.0804 22.3222H53.1124C53.3982 21.8827 53.7829 21.5162 54.2356 21.252C54.6884 20.9878 55.1967 20.8331 55.7199 20.8005C56.2431 20.7678 56.7667 20.858 57.2488 21.0639C57.7309 21.2698 58.1582 21.5857 58.4964 21.9862C59.2127 22.8727 59.5772 23.992 59.5204 25.1302H59.5284ZM57.6004 25.1942C57.6318 24.4699 57.436 23.7538 57.0404 23.1462C56.8574 22.88 56.6108 22.6637 56.323 22.517C56.0352 22.3703 55.7153 22.2979 55.3924 22.3062C54.9275 22.3092 54.478 22.4732 54.1204 22.7702C53.7408 23.0787 53.4783 23.5078 53.3764 23.9862C53.3255 24.1743 53.296 24.3675 53.2884 24.5622V25.9862C53.274 26.5617 53.4768 27.1215 53.8564 27.5542C54.0406 27.7634 54.2689 27.9293 54.5247 28.04C54.7806 28.1506 55.0578 28.2033 55.3364 28.1942C55.6604 28.2058 55.9821 28.1365 56.2726 27.9926C56.5631 27.8488 56.8132 27.6349 57.0004 27.3702C57.4276 26.7275 57.6379 25.965 57.6004 25.1942Z" fill="white"/>
<path d="M69.3204 25.1302C69.3903 26.3851 68.9652 27.6173 68.1364 28.5622C67.8042 28.9253 67.3982 29.2131 66.9456 29.4063C66.4931 29.5994 66.0044 29.6935 65.5124 29.6822C65.0354 29.7214 64.5569 29.6296 64.1283 29.4167C63.6997 29.2038 63.3374 28.8779 63.0804 28.4742V32.9462H61.1804V23.7702C61.1804 22.8582 61.1564 21.9302 61.1084 20.9702H62.7724L62.8724 22.3222H62.9044C63.1902 21.8827 63.5748 21.5162 64.0276 21.252C64.4804 20.9878 64.9887 20.8331 65.5119 20.8005C66.0351 20.7678 66.5587 20.858 67.0408 21.0639C67.5229 21.2698 67.9502 21.5857 68.2884 21.9862C69.0046 22.8727 69.3692 23.992 69.3124 25.1302H69.3204ZM67.3924 25.1942C67.4238 24.4699 67.228 23.7538 66.8324 23.1462C66.6494 22.88 66.4028 22.6637 66.115 22.517C65.8272 22.3703 65.5073 22.2979 65.1844 22.3062C64.7195 22.3092 64.27 22.4732 63.9124 22.7702C63.5355 23.081 63.2736 23.5091 63.1684 23.9862C63.1175 24.1743 63.088 24.3675 63.0804 24.5622V25.9862C63.0659 26.5617 63.2687 27.1215 63.6484 27.5542C63.8326 27.7634 64.0608 27.9293 64.3167 28.04C64.5726 28.1506 64.8498 28.2033 65.1284 28.1942C65.4525 28.2067 65.7746 28.1378 66.0652 27.9939C66.3559 27.8499 66.6058 27.6355 66.7924 27.3702C67.2231 26.7292 67.4337 25.9654 67.3924 25.1942Z" fill="white"/>
<path d="M80.28 26.1778C80.2949 26.6388 80.2088 27.0975 80.0277 27.5218C79.8467 27.946 79.5751 28.3255 79.232 28.6338C78.3271 29.3685 77.1794 29.7368 76.016 29.6658C74.9481 29.7157 73.888 29.4604 72.96 28.9298L73.4 27.3538C74.2285 27.8422 75.1742 28.0966 76.136 28.0898C76.7294 28.1265 77.3173 27.957 77.8 27.6098C77.9943 27.4575 78.15 27.2615 78.2542 27.0376C78.3585 26.8138 78.4084 26.5685 78.4 26.3218C78.4039 26.098 78.3628 25.8757 78.2789 25.6681C78.1951 25.4606 78.0703 25.272 77.912 25.1138C77.4363 24.702 76.8807 24.3928 76.28 24.2058C74.192 23.4298 73.16 22.3058 73.16 20.8218C73.1506 20.367 73.2447 19.9161 73.4353 19.5031C73.6259 19.09 73.9079 18.7258 74.2599 18.4378C75.0826 17.7875 76.1125 17.4565 77.16 17.5058C78.0855 17.4723 79.0053 17.6645 79.84 18.0658L79.36 19.6058C78.6601 19.237 77.8789 19.0499 77.088 19.0618C76.5237 19.0312 75.9672 19.2044 75.52 19.5498C75.3696 19.6846 75.2497 19.85 75.1683 20.0348C75.0869 20.2197 75.0459 20.4198 75.048 20.6218C75.0439 20.8427 75.0909 21.0616 75.1852 21.2614C75.2796 21.4612 75.4188 21.6366 75.5919 21.7738C76.1128 22.1679 76.6935 22.4758 77.312 22.6858C78.1607 22.9845 78.9279 23.4776 79.552 24.1258C80.0446 24.6952 80.3045 25.4293 80.28 26.1818" fill="white"/>
<path d="M86.5522 22.3936H84.4682V26.5296C84.4682 27.5776 84.8362 28.1056 85.5682 28.1056C85.8507 28.1102 86.1328 28.0806 86.4082 28.0176L86.4642 29.4576C85.9889 29.6101 85.4911 29.6804 84.9922 29.6656C84.6679 29.6832 84.3437 29.6308 84.0414 29.5121C83.7391 29.3934 83.4658 29.2111 83.2402 28.9776C82.7535 28.3149 82.5285 27.4959 82.6082 26.6776V22.3776H81.3682V20.9696H82.6082V19.4096L84.4642 18.8496V20.9696H86.5522V22.3936Z" fill="white"/>
<path d="M95.9443 25.162C95.9901 26.3393 95.5901 27.4906 94.8243 28.386C94.4302 28.8167 93.9468 29.1562 93.4079 29.3807C92.869 29.6053 92.2876 29.7094 91.7043 29.686C91.1453 29.7098 90.5879 29.6111 90.0711 29.3969C89.5543 29.1827 89.0905 28.8582 88.7123 28.446C87.9526 27.5791 87.5546 26.4537 87.6003 25.302C87.5536 24.1155 87.963 22.9561 88.7442 22.062C89.1386 21.6407 89.6196 21.3099 90.1541 21.0924C90.6886 20.8749 91.2638 20.7758 91.8403 20.802C92.4033 20.7793 92.9647 20.8791 93.4854 21.0946C94.0061 21.3101 94.4738 21.636 94.8562 22.05C95.6042 22.9096 95.9937 24.0235 95.9443 25.162ZM93.9842 25.202C94.0056 24.4994 93.8326 23.8045 93.4842 23.194C93.3146 22.8863 93.0656 22.6297 92.763 22.451C92.4605 22.2723 92.1156 22.1781 91.7643 22.1781C91.4129 22.1781 91.068 22.2723 90.7655 22.451C90.463 22.6297 90.2138 22.8863 90.0442 23.194C89.7133 23.8187 89.5403 24.515 89.5403 25.222C89.5403 25.929 89.7133 26.6252 90.0442 27.25C90.2118 27.5587 90.46 27.8163 90.7623 27.9952C91.0646 28.1741 91.4097 28.2678 91.761 28.2661C92.1123 28.2645 92.4566 28.1676 92.7572 27.9859C93.0579 27.8041 93.3036 27.5443 93.4682 27.234C93.8236 26.6169 94.0021 25.9138 93.9842 25.202Z" fill="white"/>
<path d="M102.104 22.6339C101.906 22.6007 101.705 22.5846 101.504 22.5859C101.204 22.5714 100.906 22.6327 100.636 22.7641C100.366 22.8955 100.134 23.0929 99.9603 23.3379C99.6314 23.8348 99.4663 24.4223 99.4882 25.0179V29.4939H97.5883V23.6539C97.5883 22.6699 97.5722 21.7739 97.5322 20.9739H99.1802L99.2523 22.6059H99.3082C99.4854 22.0733 99.8134 21.6037 100.252 21.2539C100.648 20.9591 101.127 20.7993 101.62 20.7979C101.778 20.7992 101.936 20.8098 102.092 20.8299L102.1 22.6379" fill="white"/>
<path d="M110.568 24.8256C110.573 25.1126 110.549 25.3994 110.496 25.6816H104.816C104.804 26.0437 104.871 26.4042 105.014 26.7374C105.156 27.0706 105.37 27.3683 105.64 27.6096C106.17 28.0199 106.827 28.2296 107.496 28.2016C108.281 28.211 109.061 28.0754 109.796 27.8016L110.096 29.1136C109.191 29.4843 108.219 29.664 107.24 29.6416C106.669 29.6726 106.098 29.5848 105.562 29.3838C105.026 29.1828 104.538 28.8728 104.128 28.4736C103.743 28.0528 103.444 27.5597 103.251 27.0227C103.057 26.4857 102.972 25.9157 103 25.3456C102.96 24.1848 103.334 23.0475 104.056 22.1376C104.41 21.692 104.864 21.336 105.381 21.0983C105.898 20.8607 106.464 20.748 107.032 20.7696C107.575 20.7392 108.116 20.8491 108.604 21.0888C109.091 21.3284 109.509 21.6896 109.816 22.1376C110.338 22.9348 110.6 23.8735 110.568 24.8256ZM108.76 24.3376C108.787 23.8263 108.658 23.319 108.392 22.8816C108.237 22.6263 108.016 22.4178 107.752 22.2784C107.488 22.1389 107.191 22.0737 106.892 22.0896C106.599 22.0855 106.308 22.1533 106.047 22.2872C105.786 22.4211 105.561 22.6169 105.392 22.8576C105.071 23.2858 104.877 23.796 104.832 24.3296L108.76 24.3376Z" fill="white"/>
<path d="M45.3961 13.4496H44.4081L43.8641 11.7416H41.9761L41.4561 13.4416H40.4961L42.3601 7.6416H43.5121L45.3961 13.4496ZM43.6961 11.0256L43.2081 9.5056C43.1601 9.3536 43.0641 8.9856 42.9081 8.4056H42.8961C42.8321 8.6536 42.7521 9.0136 42.6161 9.5056L42.1361 11.0256H43.6961Z" fill="white"/>
<path d="M50.0719 9.25781L48.4879 13.4498H47.5879L46.0479 9.25781H47.0479L47.7598 11.4738C47.8798 11.8418 47.9839 12.1938 48.0599 12.5298H48.0839C48.1559 12.2298 48.2599 11.8738 48.3839 11.4738L49.0839 9.25781H50.0599" fill="white"/>
<path d="M53.4479 13.4502L53.3759 12.9702H53.3479C53.2067 13.1591 53.0212 13.3104 52.8077 13.4109C52.5943 13.5113 52.3595 13.5578 52.1239 13.5462C51.9575 13.5551 51.7911 13.5297 51.6349 13.4716C51.4788 13.4135 51.3362 13.3239 51.2162 13.2083C51.0961 13.0928 51.0011 12.9538 50.9371 12.7999C50.873 12.6461 50.8413 12.4808 50.8439 12.3142C50.8439 11.2822 51.7439 10.7462 53.2919 10.7462V10.6662C53.2919 10.1142 52.9919 9.84218 52.4199 9.84218C52.0303 9.83417 51.6473 9.94282 51.3199 10.1542L51.1279 9.54618C51.5646 9.2935 52.0636 9.16875 52.5679 9.18618C53.6679 9.18618 54.2159 9.76218 54.2159 10.9222V12.4662C54.2072 12.8008 54.2286 13.1354 54.2799 13.4662L53.4479 13.4502ZM53.3199 11.3622C52.2879 11.3622 51.7679 11.6102 51.7679 12.2102C51.7583 12.2973 51.7681 12.3855 51.7966 12.4683C51.8251 12.5512 51.8717 12.6267 51.9329 12.6894C51.9941 12.7522 52.0684 12.8006 52.1506 12.8311C52.2327 12.8617 52.3206 12.8737 52.4079 12.8662C52.642 12.8721 52.8689 12.7856 53.0396 12.6254C53.2103 12.4652 53.311 12.2441 53.3199 12.0102V11.3622Z" fill="white"/>
<path d="M56.2956 8.57028C56.1871 8.56481 56.0827 8.52771 55.9951 8.46356C55.9075 8.39941 55.8406 8.31102 55.8026 8.20929C55.7647 8.10756 55.7574 7.99695 55.7816 7.89111C55.8057 7.78526 55.8604 7.68882 55.9388 7.61367C56.0171 7.53853 56.1158 7.48797 56.2226 7.46824C56.3293 7.44851 56.4395 7.46047 56.5396 7.50265C56.6396 7.54482 56.7251 7.61537 56.7855 7.70558C56.846 7.79579 56.8786 7.90171 56.8796 8.01028C56.8819 8.0865 56.8681 8.16236 56.8393 8.23295C56.8104 8.30354 56.7671 8.36728 56.712 8.42006C56.657 8.47285 56.5915 8.51349 56.5197 8.53936C56.448 8.56524 56.3716 8.57577 56.2956 8.57028ZM55.8436 9.25828H56.7716V13.4423H55.8436V9.25828Z" fill="white"/>
<path d="M58.4316 7.33789H59.3596V13.4379H58.4316V7.33789Z" fill="white"/>
<path d="M63.3122 13.4504L63.2402 12.9704H63.2122C63.0709 13.1593 62.8854 13.3106 62.672 13.411C62.4586 13.5115 62.2237 13.5579 61.9882 13.5464C61.8218 13.5553 61.6553 13.5299 61.4992 13.4718C61.343 13.4137 61.2005 13.324 61.0805 13.2085C60.9604 13.093 60.8654 12.954 60.8014 12.8001C60.7373 12.6463 60.7056 12.481 60.7082 12.3144C60.7082 11.2824 61.6082 10.7464 63.1562 10.7464V10.6664C63.1562 10.1144 62.8562 9.84236 62.2842 9.84236C61.8946 9.83436 61.5115 9.94301 61.1842 10.1544L60.9921 9.53836C61.4289 9.28569 61.9279 9.16094 62.4322 9.17836C63.5322 9.17836 64.0802 9.75436 64.0802 10.9144V12.4584C64.0735 12.7926 64.0922 13.1269 64.1362 13.4584H63.3122V13.4504ZM63.1842 11.3624C62.1522 11.3624 61.6322 11.6104 61.6322 12.2104C61.6225 12.2975 61.6323 12.3856 61.6609 12.4685C61.6894 12.5514 61.7359 12.6269 61.7971 12.6896C61.8583 12.7524 61.9327 12.8008 62.0148 12.8313C62.0969 12.8619 62.1848 12.8738 62.2722 12.8664C62.5062 12.8723 62.7332 12.7858 62.9039 12.6256C63.0746 12.4654 63.1753 12.2443 63.1842 12.0104V11.3624Z" fill="white"/>
<path d="M67.8637 13.5459C67.596 13.5586 67.3301 13.4955 67.0966 13.3639C66.8631 13.2323 66.6715 13.0375 66.5437 12.8019H66.5277L66.4717 13.4499H65.6797C65.7037 13.1139 65.7117 12.7379 65.7117 12.3219V7.33789H66.6477V9.87389H66.6637C66.7998 9.64502 66.9968 9.45841 67.2326 9.33483C67.4685 9.21124 67.734 9.15553 67.9997 9.17389C69.0077 9.17389 69.7117 10.0379 69.7117 11.2939C69.7444 11.5641 69.7219 11.8382 69.6458 12.0996C69.5696 12.3609 69.4414 12.6042 69.2687 12.8146C69.096 13.025 68.8825 13.1983 68.641 13.324C68.3995 13.4497 68.1351 13.5252 67.8637 13.5459ZM67.6717 9.90589C67.5314 9.91155 67.3936 9.94482 67.2662 10.0038C67.1388 10.0628 67.0242 10.1463 66.9291 10.2496C66.834 10.3528 66.7602 10.4739 66.7119 10.6057C66.6636 10.7375 66.6418 10.8776 66.6477 11.0179V11.7539C66.6444 11.8891 66.6679 12.0236 66.7169 12.1496C66.7658 12.2756 66.8393 12.3907 66.9331 12.4882C67.0268 12.5856 67.1389 12.6635 67.263 12.7174C67.387 12.7712 67.5205 12.7999 67.6557 12.8019C68.3557 12.8019 68.7677 12.2339 68.7677 11.3299C68.7677 10.4819 68.3357 9.90589 67.6677 9.90589H67.6717Z" fill="white"/>
<path d="M71.0879 7.33789H72.0159V13.4379H71.0879V7.33789Z" fill="white"/>
<path d="M77.0798 11.5781H74.2918C74.2852 11.7497 74.3155 11.9206 74.3806 12.0794C74.4458 12.2383 74.5442 12.3813 74.6693 12.4988C74.7944 12.6164 74.9433 12.7057 75.1059 12.7608C75.2685 12.8159 75.441 12.8354 75.6118 12.8181C75.9969 12.821 76.3792 12.7532 76.7398 12.6181L76.8838 13.2661C76.4405 13.4495 75.9633 13.5367 75.4838 13.5221C75.2019 13.5442 74.9186 13.5045 74.6536 13.4058C74.3886 13.3072 74.1484 13.1519 73.9496 12.9508C73.7508 12.7497 73.5982 12.5077 73.5026 12.2416C73.4069 11.9755 73.3705 11.6917 73.3958 11.4101C73.3679 11.1301 73.3981 10.8473 73.4845 10.5795C73.5709 10.3117 73.7115 10.0646 73.8977 9.85359C74.0839 9.64261 74.3117 9.47231 74.5667 9.35333C74.8217 9.23435 75.0985 9.16925 75.3798 9.16211C75.6303 9.16285 75.8777 9.21692 76.1057 9.32072C76.3336 9.42452 76.5368 9.57567 76.7018 9.76412C76.8668 9.95257 76.9898 10.174 77.0626 10.4137C77.1353 10.6533 77.1562 10.9057 77.1238 11.1541C77.1291 11.2966 77.1157 11.4391 77.0838 11.5781H77.0798ZM76.2318 10.9141C76.2318 10.2661 75.9038 9.81411 75.3118 9.81411C75.0349 9.83532 74.7762 9.96051 74.5878 10.1645C74.3993 10.3686 74.295 10.6364 74.2958 10.9141H76.2318Z" fill="white"/>
<path d="M82.7201 13.5455C82.4424 13.5499 82.1669 13.4962 81.9112 13.3878C81.6555 13.2794 81.4254 13.1187 81.2355 12.916C81.0457 12.7133 80.9003 12.4732 80.8088 12.211C80.7172 11.9488 80.6816 11.6703 80.7041 11.3935C80.679 11.1071 80.7148 10.8186 80.8091 10.547C80.9034 10.2753 81.0541 10.0267 81.2513 9.81746C81.4485 9.60819 81.6877 9.44299 81.9532 9.3327C82.2188 9.22242 82.5046 9.16954 82.7921 9.17755C83.0697 9.17092 83.3456 9.22286 83.6017 9.33001C83.8579 9.43715 84.0886 9.59708 84.2788 9.79937C84.469 10.0017 84.6145 10.2418 84.7057 10.5041C84.7969 10.7663 84.8317 11.0449 84.8081 11.3215C84.8319 11.6081 84.7953 11.8965 84.7007 12.168C84.606 12.4396 84.4554 12.6882 84.2586 12.8978C84.0618 13.1075 83.8232 13.2735 83.5581 13.385C83.2931 13.4966 83.0076 13.5513 82.7201 13.5455ZM82.7601 9.85755C82.0881 9.85755 81.6601 10.4895 81.6601 11.3575C81.6601 12.2255 82.1001 12.8455 82.7601 12.8455C83.4201 12.8455 83.8601 12.1735 83.8601 11.3335C83.8601 10.4935 83.4161 9.85755 82.7601 9.85755Z" fill="white"/>
<path d="M89.8085 13.4503H88.8806V11.0423C88.8806 10.2983 88.5925 9.93029 88.0325 9.93029C87.9037 9.93458 87.7771 9.96471 87.6601 10.0189C87.5431 10.0731 87.4382 10.1502 87.3517 10.2458C87.2651 10.3413 87.1986 10.4532 87.1562 10.5749C87.1137 10.6967 87.0962 10.8257 87.1046 10.9543V13.4423H86.1765V10.4583C86.1765 10.0903 86.1685 9.69029 86.1445 9.25829H86.9606L87.0005 9.90629H87.0245C87.1609 9.67699 87.3557 9.48801 87.589 9.35869C87.8223 9.22938 88.0858 9.16436 88.3525 9.17029C89.2325 9.17029 89.8085 9.84229 89.8085 10.9383V13.4503Z" fill="white"/>
<path d="M95.8964 9.96177H94.8724V11.9938C94.8724 12.5138 95.0564 12.7698 95.4164 12.7698C95.5561 12.7707 95.6954 12.7573 95.8323 12.7298L95.8563 13.4298C95.6244 13.5065 95.3804 13.5403 95.1364 13.5298C94.4004 13.5298 93.9683 13.1218 93.9683 12.0658V9.96177H93.3604V9.26177H93.9683V8.49777L94.8804 8.21777V9.25777H95.9044V9.95777" fill="white"/>
<path d="M100.824 13.4499H99.8923V11.0579C99.8923 10.3059 99.6044 9.92989 99.0444 9.92989C98.9162 9.92715 98.789 9.95144 98.6708 10.0012C98.5527 10.0509 98.4464 10.125 98.3588 10.2186C98.2713 10.3122 98.2044 10.4232 98.1627 10.5444C98.1209 10.6656 98.1051 10.7942 98.1163 10.9219V13.4379H97.1924V7.33789H98.1204V9.84989H98.1364C98.266 9.63476 98.4508 9.45825 98.6716 9.33867C98.8925 9.2191 99.1413 9.16082 99.3923 9.16989C100.28 9.16989 100.824 9.85789 100.824 10.9539V13.4539" fill="white"/>
<path d="M105.576 11.5781H102.788C102.781 11.7497 102.812 11.9206 102.877 12.0794C102.942 12.2383 103.04 12.3813 103.165 12.4988C103.291 12.6164 103.439 12.7057 103.602 12.7608C103.765 12.8159 103.937 12.8354 104.108 12.8181C104.493 12.821 104.875 12.7532 105.236 12.6181L105.38 13.2661C104.937 13.4495 104.459 13.5367 103.98 13.5221C103.698 13.5442 103.415 13.5045 103.15 13.4058C102.885 13.3072 102.644 13.1519 102.446 12.9508C102.247 12.7497 102.094 12.5077 101.999 12.2416C101.903 11.9755 101.867 11.6917 101.892 11.4101C101.864 11.1301 101.894 10.8473 101.981 10.5795C102.067 10.3117 102.208 10.0646 102.394 9.85359C102.58 9.64261 102.808 9.47231 103.063 9.35333C103.318 9.23435 103.595 9.16925 103.876 9.16211C104.126 9.16285 104.374 9.21692 104.602 9.32072C104.83 9.42452 105.033 9.57567 105.198 9.76412C105.363 9.95257 105.486 10.174 105.559 10.4137C105.631 10.6533 105.652 10.9057 105.62 11.1541C105.625 11.2966 105.612 11.4392 105.58 11.5781H105.576ZM104.728 10.9141C104.728 10.2661 104.4 9.81411 103.808 9.81411C103.531 9.83532 103.272 9.96051 103.084 10.1645C102.895 10.3686 102.791 10.6364 102.792 10.9141H104.728Z" fill="white"/>
</svg>
