<svg width="125" height="42" viewBox="0 0 125 42" fill="none" xmlns="http://www.w3.org/2000/svg">
<path d="M5.078 0.999788H119.922C121.231 0.965068 122.501 1.45079 123.453 2.35051C124.405 3.25024 124.961 4.4906 125 5.79979V36.1998C124.961 37.509 124.405 38.7493 123.453 39.6491C122.501 40.5488 121.231 41.0345 119.922 40.9998H5.078C3.76869 41.0345 2.49901 40.5488 1.54717 39.6491C0.595334 38.7493 0.0389731 37.509 0 36.1998V5.79979C0.0389731 4.4906 0.595334 3.25024 1.54717 2.35051C2.49901 1.45079 3.76869 0.965068 5.078 0.999788V0.999788Z" fill="black"/>
<path fill-rule="evenodd" clip-rule="evenodd" d="M14.4003 10.351C14.1136 10.7032 13.9708 11.1508 14.0003 11.604V31.25C13.9687 31.7024 14.1175 32.149 14.4143 32.492L14.4843 32.551L25.4923 21.545V21.298L14.4743 10.292L14.4003 10.351Z" fill="url(#paint0_linear_37_26208)"/>
<path fill-rule="evenodd" clip-rule="evenodd" d="M29.1544 25.226L25.4824 21.556V21.299L29.1555 17.626L29.2344 17.675L33.5784 20.144C34.8224 20.844 34.8224 22 33.5784 22.711L29.2344 25.18L29.1544 25.226Z" fill="url(#paint1_linear_37_26208)"/>
<path fill-rule="evenodd" clip-rule="evenodd" d="M29.2343 25.1788L25.4833 21.4268L14.4053 32.5048C14.6584 32.7275 14.9812 32.8552 15.3182 32.866C15.6552 32.8767 15.9854 32.7699 16.2523 32.5637L29.2343 25.1797" fill="url(#paint2_linear_37_26208)"/>
<path fill-rule="evenodd" clip-rule="evenodd" d="M29.2343 17.6757L16.2523 10.3007C15.9864 10.0924 15.6557 9.98409 15.3181 9.99488C14.9804 10.0057 14.6573 10.1348 14.4053 10.3597L25.4823 21.4267L29.2343 17.6757Z" fill="url(#paint3_linear_37_26208)"/>
<path opacity="0.2" fill-rule="evenodd" clip-rule="evenodd" d="M29.1541 25.1006L16.2611 32.4266C16.0069 32.6228 15.6953 32.73 15.3743 32.7318C15.0532 32.7336 14.7404 32.6299 14.4841 32.4366L14.4141 32.5066L14.4841 32.5656C14.7405 32.7587 15.0532 32.8624 15.3742 32.8606C15.6953 32.8588 16.0068 32.7517 16.2611 32.5557L29.2431 25.1807L29.1541 25.1006Z" fill="black"/>
<path opacity="0.12" fill-rule="evenodd" clip-rule="evenodd" d="M33.5775 22.5818L29.1445 25.0998L29.2235 25.1788L33.5675 22.7098C33.8229 22.5984 34.0438 22.4205 34.207 22.1946C34.3703 21.9688 34.4699 21.7033 34.4955 21.4258C34.4461 21.6779 34.337 21.9144 34.1772 22.1156C34.0175 22.3168 33.8119 22.4766 33.5775 22.5818Z" fill="black"/>
<path opacity="0.25" fill-rule="evenodd" clip-rule="evenodd" d="M16.251 10.4299L33.577 20.2729C33.812 20.3783 34.0187 20.538 34.18 20.7388C34.3413 20.9395 34.4527 21.1757 34.505 21.4279C34.4792 21.1505 34.3795 20.8851 34.2163 20.6593C34.053 20.4335 33.8323 20.2555 33.577 20.1439L16.251 10.3019C15.007 9.59194 14 10.1829 14 11.6039V11.7319C14 10.3109 15.007 9.72894 16.251 10.4299Z" fill="white"/>
<path fill-rule="evenodd" clip-rule="evenodd" d="M38.7334 24.8044C38.7544 23.2824 39.374 21.83 40.458 20.7615C41.542 19.693 43.0033 19.0944 44.5254 19.0954C45.2493 19.0844 45.9679 19.2178 46.6396 19.4879C47.3114 19.758 47.9225 20.1593 48.4373 20.6684L47.3374 21.7684C46.5831 21.041 45.5721 20.641 44.5244 20.6554C43.4238 20.6554 42.3681 21.0926 41.5898 21.8709C40.8116 22.6491 40.3743 23.7047 40.3743 24.8054C40.3743 25.906 40.8116 26.9616 41.5898 27.7399C42.3681 28.5181 43.4238 28.9554 44.5244 28.9554C45.0581 28.9774 45.5904 28.887 46.0869 28.6901C46.5834 28.4932 47.0327 28.1942 47.4062 27.8124C47.9022 27.2722 48.2017 26.5806 48.2563 25.8494H44.5273V24.2954H49.7773C49.9201 25.1118 49.8806 25.9496 49.6614 26.7489C49.4422 27.5482 49.0486 28.289 48.5093 28.9184C47.9967 29.4521 47.3766 29.8708 46.6899 30.1466C46.0033 30.4225 45.2657 30.5492 44.5264 30.5184C43.0039 30.5201 41.5421 29.9218 40.4578 28.8532C39.3734 27.7845 38.7539 26.3317 38.7334 24.8094V24.8044ZM54.1023 23.1614C53.3761 23.1643 52.6671 23.3824 52.0647 23.7881C51.4623 24.1937 50.9936 24.7688 50.7178 25.4406C50.4419 26.1124 50.3713 26.8509 50.5149 27.5629C50.6585 28.2748 51.0098 28.9282 51.5244 29.4406C52.0391 29.953 52.694 30.3015 53.4065 30.4419C54.119 30.5824 54.8572 30.5086 55.5278 30.2299C56.1985 29.9511 56.7715 29.4799 57.1746 28.8758C57.5776 28.2716 57.7924 27.5616 57.7922 26.8354C57.7986 26.35 57.7074 25.8683 57.5242 25.4188C57.3409 24.9693 57.0693 24.5612 56.7253 24.2186C56.3814 23.8761 55.9722 23.6061 55.522 23.4247C55.0717 23.2432 54.5896 23.154 54.1042 23.1624L54.1023 23.1614ZM54.1023 29.0664C53.6548 29.0987 53.2079 28.9955 52.8198 28.7703C52.4318 28.5451 52.1207 28.2082 51.9268 27.8036C51.7329 27.399 51.6654 26.9454 51.7329 26.5018C51.8005 26.0583 51.9999 25.6453 52.3054 25.3168C52.611 24.9882 53.0085 24.7593 53.446 24.6598C53.8835 24.5603 54.3407 24.5948 54.7583 24.7589C55.1759 24.923 55.5344 25.209 55.7871 25.5798C56.0399 25.9505 56.1751 26.3887 56.1753 26.8374C56.1891 27.1206 56.1463 27.4037 56.0491 27.6701C55.9519 27.9364 55.8023 28.1807 55.6094 28.3885C55.4164 28.5962 55.184 28.7633 54.9255 28.8799C54.6671 28.9965 54.3877 29.0602 54.1042 29.0674L54.1023 29.0664ZM62.1533 23.1614C61.4271 23.1643 60.7181 23.3824 60.1157 23.7881C59.5133 24.1937 59.0446 24.7688 58.7688 25.4406C58.493 26.1124 58.4223 26.8509 58.5659 27.5629C58.7095 28.2748 59.0608 28.9282 59.5754 29.4406C60.0901 29.953 60.745 30.3015 61.4575 30.4419C62.1701 30.5824 62.9082 30.5086 63.5789 30.2299C64.2495 29.9511 64.8226 29.4799 65.2256 28.8758C65.6286 28.2716 65.8435 27.5616 65.8433 26.8354C65.8499 26.3499 65.7591 25.8681 65.5759 25.4185C65.3927 24.9689 65.1211 24.5606 64.7771 24.218C64.4331 23.8754 64.0236 23.6054 63.5732 23.4241C63.1229 23.2427 62.6407 23.1538 62.1553 23.1624L62.1533 23.1614ZM62.1533 29.0664C61.7059 29.0983 61.2591 28.9948 60.8713 28.7693C60.4835 28.5438 60.1726 28.2068 59.979 27.8021C59.7854 27.3974 59.7183 26.9438 59.7861 26.5004C59.8539 26.0569 60.0535 25.6442 60.3591 25.3158C60.6648 24.9875 61.0623 24.7588 61.4998 24.6595C61.9372 24.5602 62.3945 24.5949 62.812 24.759C63.2295 24.9232 63.5877 25.2092 63.8403 25.5799C64.093 25.9506 64.2281 26.3888 64.2283 26.8374C64.2421 27.1207 64.1991 27.404 64.1018 27.6705C64.0045 27.937 63.8548 28.1814 63.6616 28.3892C63.4685 28.597 63.2358 28.764 62.9771 28.8805C62.7183 28.997 62.4389 29.0605 62.1553 29.0674L62.1533 29.0664ZM72.0344 23.3844V23.9844H71.9792C71.7343 23.7171 71.4352 23.5053 71.1016 23.3634C70.768 23.2214 70.4078 23.1525 70.0454 23.1614C69.0959 23.1997 68.198 23.6039 67.5398 24.2893C66.8816 24.9747 66.5139 25.8881 66.5139 26.8384C66.5139 27.7886 66.8816 28.7021 67.5398 29.3875C68.198 30.0728 69.0959 30.477 70.0454 30.5154C70.409 30.5254 70.7705 30.456 71.1045 30.312C71.4385 30.1679 71.737 29.9527 71.9792 29.6814H72.0344V30.2094C72.0344 31.6154 71.2833 32.3684 70.0713 32.3684C69.6675 32.3587 69.2758 32.2292 68.9458 31.9963C68.6158 31.7634 68.3626 31.4376 68.2183 31.0604L66.8113 31.6454C67.0766 32.2907 67.5285 32.8421 68.1091 33.229C68.6897 33.616 69.3726 33.8208 70.0703 33.8174C71.9623 33.8174 73.5645 32.7024 73.5645 29.9874V23.3874L72.0344 23.3844ZM70.1824 29.0664C69.6241 29.019 69.1039 28.7638 68.7249 28.3512C68.3458 27.9386 68.1353 27.3987 68.1353 26.8384C68.1353 26.2781 68.3458 25.7382 68.7249 25.3255C69.1039 24.9129 69.6241 24.6577 70.1824 24.6104C70.7245 24.6794 71.2228 24.9438 71.584 25.3539C71.9452 25.7641 72.1445 26.2918 72.1445 26.8384C72.1445 27.3849 71.9452 27.9127 71.584 28.3228C71.2228 28.7329 70.7245 28.9973 70.1824 29.0664ZM74.6824 19.4844H76.2983V30.2954H74.6824V19.4844ZM80.7273 29.0664C80.3532 29.0807 79.9834 28.9822 79.666 28.7837C79.3486 28.5853 79.0982 28.2959 78.9473 27.9534L83.8633 25.9184L83.6943 25.5004C83.4733 24.8346 83.0528 24.253 82.4897 23.8346C81.9267 23.4161 81.2486 23.1811 80.5474 23.1614C80.0749 23.1642 79.6078 23.2629 79.1746 23.4514C78.7413 23.6399 78.351 23.9142 78.0269 24.258C77.7027 24.6017 77.4514 25.0076 77.2886 25.4511C77.1257 25.8946 77.0546 26.3665 77.0793 26.8384C77.0692 27.3216 77.1565 27.8018 77.3359 28.2506C77.5154 28.6993 77.7835 29.1073 78.124 29.4502C78.4645 29.7932 78.8707 30.0641 79.3181 30.2467C79.7656 30.4294 80.245 30.52 80.7283 30.5134C81.334 30.5172 81.9314 30.3704 82.4663 30.086C83.0012 29.8017 83.4567 29.3887 83.7922 28.8844L82.5393 28.0494C82.3515 28.3618 82.0855 28.62 81.7676 28.7985C81.4497 28.977 81.0909 29.0697 80.7263 29.0674L80.7273 29.0664ZM80.6013 24.5814C80.88 24.5632 81.1579 24.6273 81.4004 24.7658C81.6429 24.9043 81.8394 25.1111 81.9653 25.3604L78.6785 26.7254C78.6616 26.4579 78.698 26.1898 78.7859 25.9367C78.8737 25.6835 79.011 25.4504 79.1899 25.2509C79.3689 25.0514 79.5857 24.8895 79.8279 24.7748C80.07 24.66 80.3327 24.5946 80.6003 24.5824L80.6013 24.5814ZM90.9543 19.4814H87.0903V30.2954H88.7034V26.1954H90.9553C91.4114 26.2203 91.8678 26.1519 92.2966 25.9945C92.7255 25.8371 93.1178 25.594 93.4495 25.2799C93.7812 24.9658 94.0453 24.5874 94.2258 24.1678C94.4064 23.7482 94.4995 23.2962 94.4995 22.8394C94.4995 22.3826 94.4064 21.9306 94.2258 21.5109C94.0453 21.0913 93.7812 20.7129 93.4495 20.3989C93.1178 20.0848 92.7255 19.8416 92.2966 19.6842C91.8678 19.5268 91.4114 19.4584 90.9553 19.4834L90.9543 19.4814ZM90.9963 24.6904H88.7034V20.9854H90.9963C91.2432 20.9796 91.4887 21.0233 91.7185 21.1138C91.9483 21.2043 92.1578 21.3399 92.3345 21.5125C92.5111 21.6851 92.6515 21.8912 92.7473 22.1188C92.8431 22.3464 92.8923 22.5909 92.8923 22.8379C92.8923 23.0848 92.8431 23.3293 92.7473 23.5569C92.6515 23.7845 92.5111 23.9907 92.3345 24.1633C92.1578 24.3358 91.9483 24.4714 91.7185 24.5619C91.4887 24.6524 91.2432 24.6961 90.9963 24.6904ZM97.0024 30.2904V19.4854H95.3894V30.2954L97.0024 30.2904ZM104.246 30.2714V26.1294C104.252 25.7097 104.169 25.2936 104.001 24.9085C103.834 24.5235 103.588 24.1783 103.277 23.8958C102.967 23.6132 102.6 23.3998 102.201 23.2696C101.802 23.1394 101.38 23.0953 100.962 23.1404C100.374 23.1064 99.7885 23.2449 99.2776 23.5388C98.7667 23.8328 98.3527 24.2695 98.0864 24.7954L99.5173 25.3954C99.6597 25.1344 99.875 24.9205 100.137 24.7799C100.399 24.6393 100.696 24.5779 100.992 24.6034C101.402 24.5638 101.81 24.6881 102.127 24.9491C102.445 25.21 102.646 25.5863 102.686 25.9954V26.1074C102.169 25.8317 101.591 25.6881 101.004 25.6894C99.4614 25.6894 97.8904 26.5374 97.8904 28.1224C97.9059 28.4563 97.9881 28.7837 98.1323 29.0852C98.2766 29.3868 98.48 29.6563 98.7302 29.8779C98.9805 30.0995 99.2726 30.2687 99.5894 30.3754C99.9061 30.4822 100.241 30.5243 100.574 30.4994C100.98 30.5236 101.385 30.4385 101.747 30.2529C102.109 30.0674 102.414 29.7881 102.631 29.4444H102.686V30.2784H104.244L104.246 30.2714ZM100.77 29.0634C100.242 29.0634 99.5054 28.7994 99.5054 28.1474C99.5054 27.3134 100.423 26.9914 101.216 26.9914C101.731 26.9773 102.241 27.102 102.691 27.3524C102.632 27.822 102.404 28.2541 102.051 28.569C101.697 28.8839 101.242 29.0602 100.768 29.0654L100.77 29.0634ZM109.917 23.3764L108.068 28.0604H108.013L106.094 23.3764H104.356L107.233 29.9254L105.592 33.5674H107.274L111.708 23.3774L109.917 23.3764Z" fill="white"/>
<path d="M43.9563 14.6359C43.3227 14.9685 42.6159 15.137 41.9003 15.1259C41.5422 15.1292 41.1865 15.0662 40.8513 14.9399C40.5429 14.8235 40.2617 14.6448 40.0253 14.4149C39.7909 14.1832 39.6064 13.9058 39.4833 13.5999C39.3478 13.2642 39.2798 12.905 39.2833 12.5429C39.2796 12.1727 39.3475 11.8053 39.4833 11.4609C39.6054 11.1502 39.7903 10.868 40.0263 10.6319C40.2614 10.3991 40.5423 10.2179 40.8513 10.0999C41.1868 9.97504 41.5424 9.91333 41.9003 9.91792C42.2596 9.91561 42.6174 9.96169 42.9643 10.0549C43.2946 10.1452 43.5991 10.3117 43.8534 10.5409L43.2073 11.1999C43.0419 11.0417 42.8449 10.9201 42.6293 10.8429C42.3998 10.7584 42.157 10.7157 41.9123 10.7169C41.6721 10.7128 41.4336 10.7591 41.2123 10.8529C41.0094 10.9404 40.8269 11.0691 40.6763 11.2309C40.5257 11.3944 40.4081 11.5856 40.3303 11.7939C40.2473 12.0154 40.2056 12.2503 40.2073 12.4869C40.2049 12.7372 40.2465 12.986 40.3303 13.2219C40.4078 13.4358 40.5267 13.6322 40.6803 13.7999C40.8306 13.9638 41.013 14.0949 41.2163 14.1849C41.437 14.2812 41.6757 14.3289 41.9163 14.3249C42.129 14.326 42.3411 14.3049 42.5493 14.2619C42.7351 14.2235 42.9137 14.156 43.0783 14.0619V12.8999H42.0593V12.0999H43.9594L43.9563 14.6359ZM45.0003 10.0439H48.2823V10.8439H45.8823V12.0599H48.1564V12.8599H45.8814V14.1999H48.4083V14.9999H45.0003V10.0439ZM50.2923 10.8439H48.7724V10.0439H52.6924V10.8439H51.1734V14.9999H50.2914L50.2923 10.8439ZM55.3463 10.0439H56.2283V14.9999H55.3463V10.0439ZM58.3283 10.8439H56.8083V10.0439H60.7283V10.8439H59.2093V14.9999H58.3273L58.3283 10.8439ZM63.1373 12.5439C63.1336 12.1737 63.2015 11.8063 63.3373 11.4619C63.4591 11.1513 63.6436 10.8691 63.8793 10.6329C64.1131 10.4002 64.3927 10.2187 64.7003 10.0999C65.0371 9.97306 65.3945 9.90999 65.7543 9.91392C66.1166 9.90529 66.4773 9.9636 66.8183 10.0859C67.13 10.1986 67.4141 10.3765 67.6513 10.6079C67.8886 10.8425 68.0745 11.1238 68.1973 11.4339C68.3333 11.7769 68.4013 12.143 68.3973 12.5119C68.4009 12.874 68.3329 13.2332 68.1973 13.5689C68.0733 13.8764 67.8874 14.1551 67.6513 14.3879C67.4122 14.6201 67.129 14.802 66.8183 14.9229C66.4791 15.0547 66.1183 15.1225 65.7543 15.1229C65.3947 15.1278 65.0373 15.0658 64.7003 14.9399C64.3919 14.8235 64.1107 14.6448 63.8743 14.4149C63.6398 14.1829 63.4553 13.9051 63.3323 13.5989C63.1983 13.2632 63.1317 12.9044 63.1363 12.5429L63.1373 12.5439ZM64.0613 12.4879C64.0585 12.7382 64.0998 12.987 64.1833 13.2229C64.2595 13.4376 64.3775 13.635 64.5303 13.8039C64.6803 13.9677 64.8624 14.0988 65.0653 14.1889C65.286 14.2852 65.5247 14.3329 65.7653 14.3289C66.006 14.3323 66.2446 14.2846 66.4653 14.1889C66.6688 14.0979 66.8511 13.9654 67.0003 13.7999C67.1532 13.631 67.2712 13.4336 67.3473 13.2189C67.4312 12.983 67.4728 12.7342 67.4703 12.4839C67.4721 12.2473 67.4304 12.0124 67.3473 11.7909C67.269 11.5833 67.1512 11.3927 67.0003 11.2299C66.8491 11.0676 66.6655 10.9388 66.4613 10.8519C66.2399 10.7588 66.0016 10.7125 65.7613 10.7159C65.5211 10.7118 65.2826 10.7581 65.0613 10.8519C64.8588 10.9395 64.6766 11.0682 64.5263 11.2299C64.3753 11.3933 64.2574 11.5845 64.1793 11.7929C64.0975 12.015 64.0572 12.2503 64.0603 12.4869L64.0613 12.4879ZM69.2343 10.0449H70.4003L72.8004 13.7269H72.8144V10.0439H73.7004V14.9999H72.5804L70.1303 11.1999H70.1163V14.9999H69.2343V10.0449Z" fill="white"/>
<defs>
<linearGradient id="paint0_linear_37_26208" x1="48.726" y1="28.0547" x2="47.3762" y2="27.8742" gradientUnits="userSpaceOnUse">
<stop stop-color="#00A0FF"/>
<stop offset="0.007" stop-color="#00A1FF"/>
<stop offset="0.26" stop-color="#00BEFF"/>
<stop offset="0.512" stop-color="#00D2FF"/>
<stop offset="0.76" stop-color="#00DFFF"/>
<stop offset="1" stop-color="#00E3FF"/>
</linearGradient>
<linearGradient id="paint1_linear_37_26208" x1="49.2468" y1="27.0804" x2="46.8902" y2="27.0804" gradientUnits="userSpaceOnUse">
<stop stop-color="#FFE000"/>
<stop offset="0.409" stop-color="#FFBD00"/>
<stop offset="0.775" stop-color="#FFA500"/>
<stop offset="1" stop-color="#FF9C00"/>
</linearGradient>
<linearGradient id="paint2_linear_37_26208" x1="49.4017" y1="27.1925" x2="48.5152" y2="25.2389" gradientUnits="userSpaceOnUse">
<stop stop-color="#FF3A44"/>
<stop offset="1" stop-color="#C31162"/>
</linearGradient>
<linearGradient id="paint3_linear_37_26208" x1="48.3637" y1="28.8808" x2="48.7678" y2="27.9985" gradientUnits="userSpaceOnUse">
<stop stop-color="#32A071"/>
<stop offset="0.069" stop-color="#2DA771"/>
<stop offset="0.476" stop-color="#15CF74"/>
<stop offset="0.801" stop-color="#06E775"/>
<stop offset="1" stop-color="#00F076"/>
</linearGradient>
</defs>
</svg>
