<svg width="267" height="58" viewBox="0 0 267 58" fill="none" xmlns="http://www.w3.org/2000/svg">
<path d="M58.8677 22.4226C58.7966 22.2915 58.7027 22.1632 58.5092 22.0648L55.7326 20.4572C55.6942 20.4358 55.6529 20.4187 55.6088 20.4073C55.5946 20.4044 55.5818 20.4044 55.5661 20.4016C55.5377 20.3973 55.5092 20.3916 55.4794 20.3916H55.4751V20.393C55.3926 20.3944 55.3115 20.4172 55.2404 20.4572L48.9915 24.073L48.9872 24.0616L48.4822 24.3538C47.8748 24.7059 47.1266 24.7059 46.5178 24.3538L43.7866 22.7746C43.6358 22.6863 43.542 22.5238 43.542 22.3485C43.542 22.1717 43.6358 22.0093 43.7866 21.9209L46.5178 20.3431C47.1266 19.9911 47.8748 19.9911 48.4822 20.3431L49.1394 20.7223C49.2916 20.8106 49.478 20.8106 49.6302 20.7223L52.175 19.2514C52.3257 19.1644 52.4196 19.002 52.4196 18.8252C52.4196 18.6499 52.3257 18.4874 52.175 18.3991L48.4822 16.264C47.8748 15.912 47.1266 15.912 46.5178 16.264L37.4737 21.4962C36.8193 21.8739 36.8193 22.8202 37.4737 23.1994L46.5178 28.4315C47.1266 28.7835 47.8748 28.7835 48.4822 28.4315L55.4751 24.3866V33.6009L53.2276 34.905L48.4822 37.6586C48.3314 37.7456 48.1721 37.8112 48.0043 37.8568C47.5036 37.9893 46.9687 37.918 46.5178 37.6586L40.0171 33.8974C39.7127 33.7221 39.5249 33.3971 39.5249 33.0451V27.6747C39.5249 27.498 39.431 27.3355 39.2802 27.2485L36.7368 25.7762C36.5846 25.6879 36.3983 25.6879 36.2461 25.7762C36.0939 25.8632 36 26.0271 36 26.2024V35.0846C36 35.4367 36.1878 35.7602 36.4908 35.9369L46.5178 41.7378C46.8122 41.9088 47.1465 41.9971 47.4865 42H47.4936C47.542 42 47.5889 41.9943 47.6373 41.9914C47.6743 41.9886 47.7112 41.9886 47.7482 41.9843C47.7994 41.9786 47.8492 41.9658 47.899 41.9558C47.9331 41.9473 47.9673 41.9444 48 41.9359C48.0555 41.9216 48.1067 41.9017 48.1593 41.8817C48.1892 41.8717 48.2176 41.8646 48.2461 41.8532C48.3257 41.8204 48.4054 41.7819 48.4808 41.7378L57.1323 36.7337L58.5036 35.954C58.8108 35.7802 59 35.4523 59 35.0989V22.9157C59 22.7404 58.9531 22.5708 58.8677 22.4226Z" fill="black"/>
<mask id="mask0_3_82" style="mask-type:luminance" maskUnits="userSpaceOnUse" x="30" y="9" width="35" height="40">
<path d="M30 9H64.8299V49H30V9Z" fill="white"/>
</mask>
<g mask="url(#mask0_3_82)">
<path d="M48.424 13.3396C48.1335 13.1723 47.8061 13.0831 47.4702 13.0788C47.1358 13.0831 46.807 13.1723 46.515 13.3396L34.4785 20.2897C33.8747 20.6383 33.502 21.2832 33.502 21.9805V35.8807C33.502 36.578 33.8747 37.2228 34.4785 37.57L46.515 44.5201C46.8112 44.6916 47.1429 44.7809 47.483 44.7823C47.8231 44.7809 48.1576 44.6916 48.4524 44.5216L60.4379 37.6026C61.0402 37.254 61.413 36.6091 61.413 35.9119V31.8954C61.4116 31.7211 61.5065 31.5595 61.6567 31.4731L64.2078 29.9992C64.358 29.9127 64.5451 29.9127 64.6953 29.9992C64.8469 30.087 64.9405 30.2486 64.9405 30.4229V37.9031C64.9391 38.2234 64.8597 38.5366 64.7095 38.8186C64.6712 39.0028 64.47 39.2197 64.1865 39.4422C64.1808 39.4479 64.1723 39.4521 64.1667 39.4578C63.4453 40.019 62.252 40.5972 62.0408 40.7205L48.4524 48.5663C48.1477 48.7407 47.8019 48.8314 47.4504 48.8271H47.4362V48.8257C47.1117 48.8172 46.7956 48.7265 46.515 48.5663L30.9751 39.5938C30.3713 39.2452 30 38.6018 30 37.9031V19.9581C30 19.6449 30.0397 19.326 30.1772 19.0553C30.1956 18.9858 30.3841 18.6414 30.7724 18.358C30.9184 18.2588 31.1763 18.127 31.4187 17.9867L46.4725 9.29621C46.7758 9.12047 47.1202 9.03119 47.4702 9.03544C47.8203 9.03119 48.1647 9.12047 48.468 9.29621L62.3583 17.3149C62.3895 17.3333 62.4135 17.356 62.4405 17.3787L62.6176 17.4793C63.0896 17.7302 63.8294 18.1114 64.2304 18.4161L64.263 18.4402C64.2687 18.4445 64.2744 18.4487 64.28 18.453C64.2928 18.4643 64.3027 18.4756 64.3169 18.4884C64.4643 18.6117 64.589 18.7562 64.6868 18.9178C64.6896 18.9206 64.691 18.9235 64.6925 18.9263H64.691C64.854 19.197 64.9405 19.5074 64.9405 19.8234V26.3937C64.9405 26.568 64.8469 26.7296 64.6953 26.8175L62.1429 28.2914C61.994 28.3764 61.807 28.3764 61.6567 28.2914C61.5051 28.2035 61.4116 28.042 61.4116 27.8676V21.9422C61.4116 21.2435 61.0388 20.5986 60.4351 20.2514L48.424 13.3396Z" fill="black"/>
</g>
<mask id="mask1_3_82" style="mask-type:luminance" maskUnits="userSpaceOnUse" x="30" y="9" width="35" height="40">
<path d="M30 9H64.8299V49H30V9Z" fill="white"/>
</mask>
<g mask="url(#mask1_3_82)">
<path d="M48.424 13.3396C48.1335 13.1723 47.8061 13.0831 47.4702 13.0788C47.1358 13.0831 46.807 13.1723 46.515 13.3396L34.4785 20.2897C33.8747 20.6383 33.502 21.2832 33.502 21.9805V35.8807C33.502 36.578 33.8747 37.2228 34.4785 37.57L46.515 44.5201C46.8112 44.6916 47.1429 44.7809 47.483 44.7823C47.8231 44.7809 48.1576 44.6916 48.4524 44.5216L60.4379 37.6026C61.0402 37.254 61.413 36.6091 61.413 35.9119V31.8954C61.4116 31.7211 61.5065 31.5595 61.6567 31.4731L64.2078 29.9992C64.358 29.9127 64.5451 29.9127 64.6953 29.9992C64.8469 30.087 64.9405 30.2486 64.9405 30.4229V37.9031C64.9391 38.2234 64.8597 38.5366 64.7095 38.8186C64.6712 39.0028 64.47 39.2197 64.1865 39.4422C64.1808 39.4479 64.1723 39.4521 64.1667 39.4578C63.4453 40.019 62.252 40.5972 62.0408 40.7205L48.4524 48.5663C48.1477 48.7407 47.8019 48.8314 47.4504 48.8271H47.4362V48.8257C47.1117 48.8172 46.7956 48.7265 46.515 48.5663L30.9751 39.5938C30.3713 39.2452 30 38.6018 30 37.9031V19.9581C30 19.6449 30.0397 19.326 30.1772 19.0553C30.1956 18.9858 30.3841 18.6414 30.7724 18.358C30.9184 18.2588 31.1763 18.127 31.4187 17.9867L46.4725 9.29621C46.7758 9.12047 47.1202 9.03119 47.4702 9.03544C47.8203 9.03119 48.1647 9.12047 48.468 9.29621L62.3583 17.3149C62.3895 17.3333 62.4135 17.356 62.4405 17.3787L62.6176 17.4793C63.0896 17.7302 63.8294 18.1114 64.2304 18.4161L64.263 18.4402C64.2687 18.4445 64.2744 18.4487 64.28 18.453C64.2928 18.4643 64.3027 18.4756 64.3169 18.4884C64.4643 18.6117 64.589 18.7562 64.6868 18.9178C64.6896 18.9206 64.691 18.9235 64.6925 18.9263H64.691C64.854 19.197 64.9405 19.5074 64.9405 19.8234V26.3937C64.9405 26.568 64.8469 26.7296 64.6953 26.8175L62.1429 28.2914C61.994 28.3764 61.807 28.3764 61.6567 28.2914C61.5051 28.2035 61.4116 28.042 61.4116 27.8676V21.9422C61.4116 21.2435 61.0388 20.5986 60.4351 20.2514L48.424 13.3396Z" fill="black"/>
</g>
<path d="M81.5457 33.0723H83.6532V36.5H79.3368L75.9217 33.1357V23.0176L79.3368 19.6533H83.6532V23.0684H81.5457V33.0723ZM86.6873 23.0684H84.5418V19.6533H88.8963L92.2987 23.0176V33.1357L88.8963 36.5H84.5418V33.0723H86.6873V23.0684ZM101.147 28.9082L102.836 21.8369L105.032 29.835L103.217 36.5H98.1258L93.0858 19.6533H98.6717L101.147 28.9082ZM113.056 36.5H107.698L103.077 19.6533H108.739L113.056 36.5ZM113.106 19.6533H118.223L113.652 35.624L111.367 26.6484L113.106 19.6533ZM124.989 29.5811V36.5H119.378V19.6533H124.989V26.3311H130.359V29.5811H124.989ZM125.878 22.916V19.6533H134.65V24.5283H129.369V22.916H125.878ZM125.878 36.5V33.1357H129.039V31.4473H134.65V36.5H125.878ZM153.528 36.5H147.561L137.354 19.6533H143.283L153.528 36.5ZM137.354 36.5V21.2529L142.242 29.2637V36.5H137.354ZM153.528 19.6533V34.9004L148.64 26.8516V19.6533H153.528ZM173.638 36.5V30.1904H166.35L162.973 26.8135V23.0176L166.35 19.6533H168.255V25.6328H175.999L179.262 29.0098V33.1357L175.897 36.5H173.638ZM169.143 22.6875V19.6533H175.885L178.805 22.5859V24.376H173.638V22.6875H169.143ZM162.973 31.4473H168.585V33.4531H172.749V36.5H165.805L162.973 33.1357V31.4473ZM192.617 19.6533H198.279V36.5H192.655V29.6572H188.491V26.2803H192.617V19.6533ZM187.602 36.5H181.991V19.6533H187.602V36.5ZM206.468 33.0723H208.575V36.5H204.259L200.844 33.1357V23.0176L204.259 19.6533H208.575V23.0684H206.468V33.0723ZM211.609 23.0684H209.464V19.6533H213.818L217.221 23.0176V33.1357L213.818 36.5H209.464V33.0723H211.609V23.0684ZM219.798 36.5V19.6533H225.307V36.5H219.798ZM226.196 23.0176V19.6533H232.493L235.857 23.0176V28.7939L232.493 32.1709H226.196V28.7939H230.271V23.0176H226.196Z" fill="black"/>
</svg>
