<svg width="213" height="41" viewBox="0 0 213 41" fill="none" xmlns="http://www.w3.org/2000/svg">
<path d="M33.2497 13.4421C33.1786 13.311 33.0847 13.1827 32.8913 13.0844L30.1146 11.4767C30.0762 11.4553 30.0349 11.4382 29.9908 11.4268C29.9766 11.4239 29.9638 11.4239 29.9482 11.4211C29.9197 11.4168 29.8913 11.4111 29.8614 11.4111H29.8571V11.4125C29.7746 11.414 29.6935 11.4368 29.6224 11.4767L23.3735 15.0926L23.3692 15.0812L22.8642 15.3733C22.2568 15.7254 21.5086 15.7254 20.8998 15.3733L18.1686 13.7942C18.0179 13.7058 17.924 13.5433 17.924 13.368C17.924 13.1913 18.0179 13.0288 18.1686 12.9404L20.8998 11.3627C21.5086 11.0106 22.2568 11.0106 22.8642 11.3627L23.5214 11.7418C23.6736 11.8301 23.86 11.8301 24.0122 11.7418L26.557 10.2709C26.7078 10.184 26.8016 10.0215 26.8016 9.84475C26.8016 9.66944 26.7078 9.50696 26.557 9.4186L22.8642 7.28355C22.2568 6.93151 21.5086 6.93151 20.8998 7.28355L11.8557 12.5157C11.2014 12.8934 11.2014 13.8398 11.8557 14.2189L20.8998 19.451C21.5086 19.8031 22.2568 19.8031 22.8642 19.451L29.8571 15.4061V24.6204L27.6096 25.9246L22.8642 28.6782C22.7135 28.7651 22.5541 28.8307 22.3863 28.8763C21.8856 29.0088 21.3507 28.9376 20.8998 28.6782L14.3991 24.9169C14.0947 24.7416 13.9069 24.4166 13.9069 24.0646V18.6942C13.9069 18.5175 13.813 18.355 13.6622 18.2681L11.1189 16.7958C10.9667 16.7074 10.7803 16.7074 10.6281 16.7958C10.4759 16.8827 10.382 17.0466 10.382 17.2219V26.1041C10.382 26.4562 10.5698 26.7797 10.8728 26.9565L20.8998 32.7573C21.1943 32.9283 21.5285 33.0167 21.8685 33.0195H21.8756C21.924 33.0195 21.9709 33.0138 22.0193 33.011C22.0563 33.0081 22.0933 33.0081 22.1302 33.0038C22.1814 32.9981 22.2312 32.9853 22.281 32.9753C22.3152 32.9668 22.3493 32.9639 22.382 32.9554C22.4375 32.9411 22.4887 32.9212 22.5413 32.9012C22.5712 32.8913 22.5997 32.8841 22.6281 32.8727C22.7078 32.8399 22.7874 32.8015 22.8628 32.7573L31.5143 27.7532L32.8856 26.9736C33.1928 26.7997 33.382 26.4719 33.382 26.1184V13.9353C33.382 13.7599 33.3351 13.5903 33.2497 13.4421Z" fill="white"/>
<mask id="mask0_3_82" style="mask-type:luminance" maskUnits="userSpaceOnUse" x="4" y="0" width="36" height="41">
<path d="M4.38202 0.0195236H39.212V40.0195H4.38202V0.0195236Z" fill="white"/>
</mask>
<g mask="url(#mask0_3_82)">
<path d="M22.8061 4.3591C22.5155 4.19187 22.1881 4.10258 21.8523 4.09833C21.5178 4.10258 21.189 4.19187 20.897 4.3591L8.86048 11.3092C8.25674 11.6579 7.884 12.3027 7.884 13V26.9002C7.884 27.5975 8.25674 28.2423 8.86048 28.5895L20.897 35.5397C21.1932 35.7111 21.5249 35.8004 21.865 35.8018C22.2051 35.8004 22.5396 35.7111 22.8344 35.5411L34.8199 28.6221C35.4223 28.2735 35.795 27.6287 35.795 26.9314V22.9149C35.7936 22.7406 35.8885 22.5791 36.0388 22.4926L38.5898 21.0187C38.74 20.9322 38.9271 20.9322 39.0773 21.0187C39.229 21.1066 39.3225 21.2681 39.3225 21.4424V28.9226C39.3211 29.2429 39.2417 29.5561 39.0915 29.8381C39.0532 30.0224 38.852 30.2392 38.5685 30.4617C38.5629 30.4674 38.5544 30.4716 38.5487 30.4773C37.8273 31.0385 36.634 31.6168 36.4228 31.7401L22.8344 39.5859C22.5297 39.7602 22.1839 39.8509 21.8324 39.8466H21.8182V39.8452C21.4937 39.8367 21.1777 39.746 20.897 39.5859L5.35708 30.6134C4.75333 30.2647 4.38202 29.6213 4.38202 28.9226V10.9776C4.38202 10.6644 4.4217 10.3455 4.55917 10.0748C4.5776 10.0054 4.76609 9.66097 5.15441 9.37753C5.30039 9.27832 5.55832 9.14652 5.80067 9.00621L20.8545 0.315733C21.1578 0.139996 21.5022 0.0507104 21.8523 0.0549622C22.2023 0.0507104 22.5467 0.139996 22.85 0.315733L36.7403 8.33444C36.7715 8.35287 36.7956 8.37554 36.8225 8.39822L36.9996 8.49884C37.4716 8.74969 38.2114 9.13093 38.6125 9.43563L38.6451 9.45973C38.6507 9.46398 38.6564 9.46823 38.6621 9.47248C38.6748 9.48382 38.6847 9.49516 38.6989 9.50791C38.8463 9.63121 38.971 9.77577 39.0688 9.93733C39.0716 9.94017 39.0731 9.943 39.0745 9.94584H39.0731C39.236 10.2165 39.3225 10.5269 39.3225 10.8429V17.4132C39.3225 17.5876 39.229 17.7491 39.0773 17.837L36.5249 19.3109C36.3761 19.396 36.189 19.396 36.0388 19.3109C35.8871 19.223 35.7936 19.0615 35.7936 18.8872V12.9617C35.7936 12.263 35.4209 11.6182 34.8171 11.271L22.8061 4.3591Z" fill="white"/>
</g>
<mask id="mask1_3_82" style="mask-type:luminance" maskUnits="userSpaceOnUse" x="4" y="0" width="36" height="41">
<path d="M4.38202 0.0195236H39.212V40.0195H4.38202V0.0195236Z" fill="white"/>
</mask>
<g mask="url(#mask1_3_82)">
<path d="M22.8061 4.3591C22.5155 4.19187 22.1881 4.10258 21.8523 4.09833C21.5178 4.10258 21.189 4.19187 20.897 4.3591L8.86048 11.3092C8.25674 11.6579 7.884 12.3027 7.884 13V26.9002C7.884 27.5975 8.25674 28.2423 8.86048 28.5895L20.897 35.5397C21.1932 35.7111 21.5249 35.8004 21.865 35.8018C22.2051 35.8004 22.5396 35.7111 22.8344 35.5411L34.8199 28.6221C35.4223 28.2735 35.795 27.6287 35.795 26.9314V22.9149C35.7936 22.7406 35.8885 22.5791 36.0388 22.4926L38.5898 21.0187C38.74 20.9322 38.9271 20.9322 39.0773 21.0187C39.229 21.1066 39.3225 21.2681 39.3225 21.4424V28.9226C39.3211 29.2429 39.2417 29.5561 39.0915 29.8381C39.0532 30.0224 38.852 30.2392 38.5685 30.4617C38.5629 30.4674 38.5544 30.4716 38.5487 30.4773C37.8273 31.0385 36.634 31.6168 36.4228 31.7401L22.8344 39.5859C22.5297 39.7602 22.1839 39.8509 21.8324 39.8466H21.8182V39.8452C21.4937 39.8367 21.1777 39.746 20.897 39.5859L5.35708 30.6134C4.75333 30.2647 4.38202 29.6213 4.38202 28.9226V10.9776C4.38202 10.6644 4.4217 10.3455 4.55917 10.0748C4.5776 10.0054 4.76609 9.66097 5.15441 9.37753C5.30039 9.27832 5.55832 9.14652 5.80067 9.00621L20.8545 0.315733C21.1578 0.139996 21.5022 0.0507104 21.8523 0.0549622C22.2023 0.0507104 22.5467 0.139996 22.85 0.315733L36.7403 8.33444C36.7715 8.35287 36.7956 8.37554 36.8225 8.39822L36.9996 8.49884C37.4716 8.74969 38.2114 9.13093 38.6125 9.43563L38.6451 9.45973C38.6507 9.46398 38.6564 9.46823 38.6621 9.47248C38.6748 9.48382 38.6847 9.49516 38.6989 9.50791C38.8463 9.63121 38.971 9.77577 39.0688 9.93733C39.0716 9.94017 39.0731 9.943 39.0745 9.94584H39.0731C39.236 10.2165 39.3225 10.5269 39.3225 10.8429V17.4132C39.3225 17.5876 39.229 17.7491 39.0773 17.837L36.5249 19.3109C36.3761 19.396 36.189 19.396 36.0388 19.3109C35.8871 19.223 35.7936 19.0615 35.7936 18.8872V12.9617C35.7936 12.263 35.4209 11.6182 34.8171 11.271L22.8061 4.3591Z" fill="white"/>
</g>
<path d="M55.9278 24.0918H58.0352V27.5195H53.7188L50.3037 24.1553V14.0371L53.7188 10.6728H58.0352V14.0879H55.9278V24.0918ZM61.0694 14.0879H58.9239V10.6728H63.2784L66.6807 14.0371V24.1553L63.2784 27.5195H58.9239V24.0918H61.0694V14.0879ZM75.5293 19.9277L77.2178 12.8564L79.4141 20.8545L77.5987 27.5195H72.5078L67.4678 10.6728H73.0537L75.5293 19.9277ZM87.4375 27.5195H82.0801L77.459 10.6728H83.1211L87.4375 27.5195ZM87.4883 10.6728H92.6045L88.0342 26.6435L85.7491 17.668L87.4883 10.6728ZM99.3711 20.6006V27.5195H93.7598V10.6728H99.3711V17.3506H104.741V20.6006H99.3711ZM100.26 13.9355V10.6728H109.032V15.5478H103.751V13.9355H100.26ZM100.26 27.5195V24.1553H103.421V22.4668H109.032V27.5195H100.26ZM127.91 27.5195H121.943L111.736 10.6728H117.665L127.91 27.5195ZM111.736 27.5195V12.2725L116.624 20.2832V27.5195H111.736ZM127.91 10.6728V25.9199L123.022 17.8711V10.6728H127.91ZM148.02 27.5195V21.21H140.732L137.355 17.833V14.0371L140.732 10.6728H142.637V16.6523H150.381L153.644 20.0293V24.1553L150.279 27.5195H148.02ZM143.525 13.707V10.6728H150.267L153.187 13.6055V15.3955H148.02V13.707H143.525ZM137.355 22.4668H142.967V24.4726H147.131V27.5195H140.187L137.355 24.1553V22.4668ZM166.999 10.6728H172.661V27.5195H167.037V20.6768H162.873V17.2998H166.999V10.6728ZM161.984 27.5195H156.373V10.6728H161.984V27.5195ZM180.85 24.0918H182.957V27.5195H178.641L175.226 24.1553V14.0371L178.641 10.6728H182.957V14.0879H180.85V24.0918ZM185.991 14.0879H183.846V10.6728H188.2L191.603 14.0371V24.1553L188.2 27.5195H183.846V24.0918H185.991V14.0879ZM194.18 27.5195V10.6728H199.689V27.5195H194.18ZM200.578 14.0371V10.6728H206.875L210.239 14.0371V19.8135L206.875 23.1904H200.578V19.8135H204.653V14.0371H200.578Z" fill="white"/>
</svg>
