<svg width="151" height="26" viewBox="0 0 151 26" fill="none" xmlns="http://www.w3.org/2000/svg">
<path d="M17.2598 8.81479C17.2197 8.74094 17.1668 8.66869 17.0578 8.6133L15.4939 7.70776C15.4723 7.69572 15.449 7.68608 15.4242 7.67966C15.4162 7.67806 15.409 7.67806 15.4001 7.67645C15.3841 7.67404 15.3681 7.67083 15.3513 7.67083H15.3489V7.67163C15.3024 7.67244 15.2567 7.68528 15.2167 7.70776L11.697 9.74441L11.6945 9.73799L11.4101 9.90256C11.068 10.1008 10.6466 10.1008 10.3036 9.90256L8.76532 9.01308C8.6804 8.96331 8.62752 8.87179 8.62752 8.77305C8.62752 8.6735 8.6804 8.58199 8.76532 8.53222L10.3036 7.64354C10.6466 7.44525 11.068 7.44525 11.4101 7.64354L11.7803 7.85708C11.866 7.90685 11.971 7.90685 12.0567 7.85708L13.4901 7.02861C13.575 6.97964 13.6279 6.88812 13.6279 6.78858C13.6279 6.68983 13.575 6.59832 13.4901 6.54855L11.4101 5.34598C11.068 5.14769 10.6466 5.14769 10.3036 5.34598L5.20955 8.29299C4.841 8.50572 4.841 9.03877 5.20955 9.25231L10.3036 12.1993C10.6466 12.3976 11.068 12.3976 11.4101 12.1993L15.3489 9.92102V15.111L14.083 15.8455L11.4101 17.3965C11.3252 17.4455 11.2355 17.4824 11.1409 17.5081C10.8589 17.5828 10.5576 17.5426 10.3036 17.3965L6.64212 15.278C6.47066 15.1792 6.3649 14.9962 6.3649 14.7979V11.773C6.3649 11.6735 6.31202 11.582 6.22709 11.533L4.79453 10.7037C4.7088 10.654 4.60384 10.654 4.51811 10.7037C4.43238 10.7527 4.3795 10.845 4.3795 10.9438V15.9467C4.3795 16.145 4.48526 16.3272 4.65592 16.4268L10.3036 19.6941C10.4695 19.7904 10.6578 19.8402 10.8493 19.8418H10.8533C10.8805 19.8418 10.907 19.8386 10.9342 19.837C10.955 19.8354 10.9759 19.8354 10.9967 19.833C11.0255 19.8297 11.0536 19.8225 11.0816 19.8169C11.1009 19.8121 11.1201 19.8105 11.1385 19.8057C11.1698 19.7976 11.1986 19.7864 11.2282 19.7752C11.2451 19.7695 11.2611 19.7655 11.2771 19.7591C11.322 19.7406 11.3669 19.719 11.4093 19.6941L16.2823 16.8755L17.0546 16.4364C17.2277 16.3384 17.3343 16.1538 17.3343 15.9547V9.09256C17.3343 8.99381 17.3078 8.89828 17.2598 8.81479Z" fill="white"/>
<mask id="mask0_3_82" style="mask-type:luminance" maskUnits="userSpaceOnUse" x="1" y="1" width="20" height="23">
<path d="M1 1.25451H20.618V23.7845H1V1.25451Z" fill="white"/>
</mask>
<g mask="url(#mask0_3_82)">
<path d="M11.3773 3.69878C11.2137 3.60458 11.0293 3.55429 10.8401 3.5519C10.6517 3.55429 10.4665 3.60458 10.3021 3.69878L3.52249 7.61343C3.18244 7.80981 2.97249 8.17301 2.97249 8.56576V16.3951C2.97249 16.7878 3.18244 17.151 3.52249 17.3466L10.3021 21.2612C10.4689 21.3578 10.6557 21.4081 10.8473 21.4089C11.0389 21.4081 11.2273 21.3578 11.3933 21.262L18.1442 17.365C18.4834 17.1686 18.6934 16.8054 18.6934 16.4126V14.1504C18.6926 14.0522 18.7461 13.9612 18.8307 13.9125L20.2675 13.0823C20.3522 13.0336 20.4575 13.0336 20.5421 13.0823C20.6276 13.1318 20.6802 13.2228 20.6802 13.321V17.5342C20.6794 17.7146 20.6347 17.891 20.5501 18.0499C20.5286 18.1536 20.4152 18.2758 20.2556 18.4011C20.2524 18.4043 20.2476 18.4067 20.2444 18.4099C19.8381 18.726 19.1659 19.0517 19.047 19.1211L11.3933 23.5403C11.2217 23.6385 11.0269 23.6895 10.8289 23.6872H10.821V23.6864C10.6382 23.6816 10.4602 23.6305 10.3021 23.5403L1.5492 18.4865C1.20914 18.2901 1 17.9277 1 17.5342V7.42664C1 7.25023 1.02235 7.07062 1.09978 6.91815C1.11016 6.87904 1.21633 6.68506 1.43505 6.52541C1.51727 6.46953 1.66255 6.39529 1.79906 6.31627L10.2781 1.42135C10.449 1.32236 10.643 1.27207 10.8401 1.27447C11.0373 1.27207 11.2313 1.32236 11.4021 1.42135L19.2258 5.93789C19.2434 5.94827 19.257 5.96104 19.2721 5.97381L19.3719 6.03049C19.6377 6.17178 20.0544 6.38651 20.2803 6.55814L20.2987 6.57171C20.3019 6.5741 20.3051 6.5765 20.3083 6.57889C20.3154 6.58528 20.321 6.59166 20.329 6.59885C20.412 6.6683 20.4823 6.74972 20.5374 6.84072C20.539 6.84232 20.5398 6.84391 20.5405 6.84551H20.5398C20.6316 6.99798 20.6802 7.1728 20.6802 7.35081V11.0515C20.6802 11.1497 20.6276 11.2407 20.5421 11.2902L19.1045 12.1204C19.0207 12.1683 18.9153 12.1683 18.8307 12.1204C18.7453 12.0709 18.6926 11.9799 18.6926 11.8817V8.5442C18.6926 8.15066 18.4826 7.78745 18.1426 7.59188L11.3773 3.69878Z" fill="white"/>
</g>
<mask id="mask1_3_82" style="mask-type:luminance" maskUnits="userSpaceOnUse" x="1" y="1" width="20" height="23">
<path d="M1 1.25451H20.618V23.7845H1V1.25451Z" fill="white"/>
</mask>
<g mask="url(#mask1_3_82)">
<path d="M11.3773 3.69878C11.2137 3.60458 11.0293 3.55429 10.8401 3.5519C10.6517 3.55429 10.4665 3.60458 10.3021 3.69878L3.52249 7.61343C3.18244 7.80981 2.97249 8.17301 2.97249 8.56576V16.3951C2.97249 16.7878 3.18244 17.151 3.52249 17.3466L10.3021 21.2612C10.4689 21.3578 10.6557 21.4081 10.8473 21.4089C11.0389 21.4081 11.2273 21.3578 11.3933 21.262L18.1442 17.365C18.4834 17.1686 18.6934 16.8054 18.6934 16.4126V14.1504C18.6926 14.0522 18.7461 13.9612 18.8307 13.9125L20.2675 13.0823C20.3522 13.0336 20.4575 13.0336 20.5421 13.0823C20.6276 13.1318 20.6802 13.2228 20.6802 13.321V17.5342C20.6794 17.7146 20.6347 17.891 20.5501 18.0499C20.5286 18.1536 20.4152 18.2758 20.2556 18.4011C20.2524 18.4043 20.2476 18.4067 20.2444 18.4099C19.8381 18.726 19.1659 19.0517 19.047 19.1211L11.3933 23.5403C11.2217 23.6385 11.0269 23.6895 10.8289 23.6872H10.821V23.6864C10.6382 23.6816 10.4602 23.6305 10.3021 23.5403L1.5492 18.4865C1.20914 18.2901 1 17.9277 1 17.5342V7.42664C1 7.25023 1.02235 7.07062 1.09978 6.91815C1.11016 6.87904 1.21633 6.68506 1.43505 6.52541C1.51727 6.46953 1.66255 6.39529 1.79906 6.31627L10.2781 1.42135C10.449 1.32236 10.643 1.27207 10.8401 1.27447C11.0373 1.27207 11.2313 1.32236 11.4021 1.42135L19.2258 5.93789C19.2434 5.94827 19.257 5.96104 19.2721 5.97381L19.3719 6.03049C19.6377 6.17178 20.0544 6.38651 20.2803 6.55814L20.2987 6.57171C20.3019 6.5741 20.3051 6.5765 20.3083 6.57889C20.3154 6.58528 20.321 6.59166 20.329 6.59885C20.412 6.6683 20.4823 6.74972 20.5374 6.84072C20.539 6.84232 20.5398 6.84391 20.5405 6.84551H20.5398C20.6316 6.99798 20.6802 7.1728 20.6802 7.35081V11.0515C20.6802 11.1497 20.6276 11.2407 20.5421 11.2902L19.1045 12.1204C19.0207 12.1683 18.9153 12.1683 18.8307 12.1204C18.7453 12.0709 18.6926 11.9799 18.6926 11.8817V8.5442C18.6926 8.15066 18.4826 7.78745 18.1426 7.59188L11.3773 3.69878Z" fill="white"/>
</g>
<path d="M30.784 15.3828H32.4051V18.0195H29.0848L26.4578 15.4316V7.64843L29.0848 5.06054H32.4051V7.68749H30.784V15.3828ZM34.7391 7.68749H33.0887V5.06054H36.4383L39.0555 7.64843V15.4316L36.4383 18.0195H33.0887V15.3828H34.7391V7.68749ZM45.8621 12.1797L47.1609 6.74023L48.8504 12.8926L47.4539 18.0195H43.5379L39.6609 5.06054H43.9578L45.8621 12.1797ZM55.0223 18.0195H50.9012L47.3465 5.06054H51.702L55.0223 18.0195ZM55.0613 5.06054H58.9969L55.4813 17.3457L53.7234 10.4414L55.0613 5.06054ZM64.202 12.6973V18.0195H59.8856V5.06054H64.202V10.1973H68.3328V12.6973H64.202ZM64.8856 7.5703V5.06054H71.6336V8.81054H67.5711V7.5703H64.8856ZM64.8856 18.0195V15.4316H67.3172V14.1328H71.6336V18.0195H64.8856ZM86.1551 18.0195H81.5652L73.7137 5.06054H78.2742L86.1551 18.0195ZM73.7137 18.0195V6.29101L77.4734 12.4531V18.0195H73.7137ZM86.1551 5.06054V16.7891L82.3953 10.5976V5.06054H86.1551ZM101.624 18.0195V13.166H96.0184L93.4207 10.5684V7.64843L96.0184 5.06054H97.4832V9.66015H103.44L105.95 12.2578V15.4316L103.362 18.0195H101.624ZM98.1668 7.39452V5.06054H103.352L105.598 7.3164V8.69335H101.624V7.39452H98.1668ZM93.4207 14.1328H97.7371V15.6758H100.94V18.0195H95.5984L93.4207 15.4316V14.1328ZM116.223 5.06054H120.579V18.0195H116.253V12.7559H113.05V10.1582H116.223V5.06054ZM112.366 18.0195H108.05V5.06054H112.366V18.0195ZM126.878 15.3828H128.499V18.0195H125.179L122.552 15.4316V7.64843L125.179 5.06054H128.499V7.68749H126.878V15.3828ZM130.833 7.68749H129.182V5.06054H132.532L135.149 7.64843V15.4316L132.532 18.0195H129.182V15.3828H130.833V7.68749ZM137.132 18.0195V5.06054H141.37V18.0195H137.132ZM142.054 7.64843V5.06054H146.897L149.485 7.64843V12.0918L146.897 14.6894H142.054V12.0918H145.188V7.64843H142.054Z" fill="white"/>
</svg>
