<svg xmlns="http://www.w3.org/2000/svg" xmlns:xlink="http://www.w3.org/1999/xlink" version="1.1" width="200pt" height="200pt" viewBox="0 0 200 200">
<path transform="matrix(1,0,0,-1,0,200)" d="M106.699 92.9778C110.509 92.9778 113.615 96.0928 113.615 99.9045 113.615 103.713 110.509 106.818 106.699 106.818 102.886 106.818 99.7797 103.713 99.7797 99.9045 99.7797 96.0928 102.886 92.9778 106.699 92.9778" fill="#eb1f26" fill-rule="evenodd"/>
<path transform="matrix(1,0,0,-1,0,200)" d="M43.4359 104.889C46.0798 104.889 48.2184 102.745 48.2184 100.115 48.2184 97.4702 46.0798 95.3345 43.4359 95.3345 40.7991 95.3345 38.6592 97.4702 38.6592 100.115 38.6592 102.745 40.7991 104.889 43.4359 104.889M43.4359 107.022C47.259 107.022 50.3612 103.933 50.3612 100.115 50.3612 96.291 47.259 93.1902 43.4359 93.1902 39.6171 93.1902 36.5206 96.291 36.5206 100.115 36.5206 103.933 39.6171 107.022 43.4359 107.022" fill="#211e1f" fill-rule="evenodd"/>
<path transform="matrix(1,0,0,-1,0,200)" d="M141.391 93.5721H143.60951V106.5847H141.391Z" fill="#211e1f" fill-rule="evenodd"/>
<path transform="matrix(1,0,0,-1,0,200)" d="M123.782 106.585H126.001V95.4737H130.688V93.5278H123.782Z" fill="#211e1f" fill-rule="evenodd"/>
<path transform="matrix(1,0,0,-1,0,200)" d="M155.529 106.585H162.904V104.639H157.753V101.602H162.897V99.6537H157.753V93.5721H155.529Z" fill="#211e1f" fill-rule="evenodd"/>
<path transform="matrix(1,0,0,-1,0,200)" d="M174.049 106.585H181.398V104.639H176.273V101.577H181.398V99.6308H176.273V95.5179H181.398V93.5721H174.049Z" fill="#211e1f" fill-rule="evenodd"/>
<path transform="matrix(1,0,0,-1,0,200)" d="M24.2638 104.68V93.5907H22.0396V104.68H18.602V106.626H27.6901V104.68Z" fill="#211e1f" fill-rule="evenodd"/>
<path transform="matrix(1,0,0,-1,0,200)" d="M60.6089 106.585H62.8317V101.315L67.3729 106.576 70.0967 106.582 64.9388 100.793 70.7163 93.6278H67.8654L62.8317 100.093V93.5721H60.6089Z" fill="#211e1f" fill-rule="evenodd"/>
<path transform="matrix(1,0,0,-1,0,200)" d="M78.6323 106.585 81.0079 106.57 84.2185 101.254 87.5163 106.585 89.7305 106.576 85.2507 99.5523 85.265 93.6192H83.0608V99.5666Z" fill="#211e1f" fill-rule="evenodd"/>
</svg>
